<?xml version="1.0" encoding="utf-8"?>
<svg xmlns="http://www.w3.org/2000/svg">
  <symbol id="inbox" fill="#FFFFFF" viewBox="0 0 24 24">
    <path d="M19 3H4.99c-1.11 0-1.98.89-1.98 2L3 19c0 1.1.88 2 1.99 2H19c1.1 0 2-.9 2-2V5c0-1.11-.9-2-2-2zm0 12h-4c0 1.66-1.35 3-3 3s-3-1.34-3-3H4.99V5H19v10z"/>
    <path fill="none" d="M0 0h24v24H0V0z"/>
  </symbol>

  <symbol id="calendar" fill="#FFFFFF" viewBox="0 0 24 24">
    <path d="M20 3h-1V1h-2v2H7V1H5v2H4c-1.1 0-2 .9-2 2v16c0 1.1.9 2 2 2h16c1.1 0 2-.9 2-2V5c0-1.1-.9-2-2-2zm0 18H4V8h16v13z"/>
    <path fill="none" d="M0 0h24v24H0z"/>
  </symbol>

  <symbol id="sent" fill="#696E7D" viewBox="0 0 24 24">
    <path fill="none" d="M0 0h24v24H0V0z"/>
    <path d="M17.27 6.73l-4.24 10.13-1.32-3.42-.32-.83-.82-.32-3.43-1.33 10.13-4.23M21 3L3 10.53v.98l6.84 2.65L12.48 21h.98L21 3z"/>
  </symbol>

  <symbol id="drafts" fill="#696E7D" viewBox="0 0 24 24">
    <path fill="none" d="M0 0h24v24H0V0z"/>
    <path d="M14 2H6c-1.1 0-1.99.9-1.99 2L4 20c0 1.1.89 2 1.99 2H18c1.1 0 2-.9 2-2V8l-6-6zM6 20V4h7v5h5v11H6z"/>
  </symbol>

  <symbol id="pins" fill="#FA6323" viewBox="0 0 24 24">
    <path fill="none" d="M0 0h24v24H0V0z"/>
    <path d="M12 1C7.59 1 4 4.59 4 9c0 5.57 6.96 13.34 7.26 13.67l.74.82.74-.82C13.04 22.34 20 14.57 20 9c0-4.41-3.59-8-8-8zm0 19.47C9.82 17.86 6 12.54 6 9c0-3.31 2.69-6 6-6s6 2.69 6 6c0 3.83-4.25 9.36-6 11.47zM12 9c.83 0 1.5-.67 1.5-1.5S12.83 6 12 6s-1.5.68-1.5 1.5c0 .83.67 1.5 1.5 1.5zm0 1c-1 0-3 .5-3 1.5v.12c.73.84 1.8 1.38 3 1.38s2.27-.54 3-1.38v-.12c0-1-2-1.5-3-1.5z"/>
  </symbol>

  <symbol id="archive" fill="#28C93E" viewBox="0 0 24 24">
    <path fill="none" d="M0 0h24v24H0V0z"/>
    <path d="M20.54 5.23l-1.39-1.68C18.88 3.21 18.47 3 18 3H6c-.47 0-.88.21-1.16.55L3.46 5.23C3.17 5.57 3 6.02 3 6.5V19c0 1.1.9 2 2 2h14c1.1 0 2-.9 2-2V6.5c0-.48-.17-.93-.46-1.27zM6.24 5h11.52l.81.97H5.44l.8-.97zM5 19V8h14v11H5zm8.45-9h-2.9v3H8l4 4 4-4h-2.55z"/>
  </symbol>
</svg>